<mxfile host="app.diagrams.net" modified="2024-07-23T08:43:37.378Z" agent="Mozilla/5.0 (X11; Linux x86_64) AppleWebKit/537.36 (KHTML, like Gecko) Chrome/125.0.0.0 Safari/537.36" version="24.7.1" etag="t_nIKX2r3U8TLYVHqTKw" type="github">
  <diagram name="Page-1" id="qEALH-cv_LYWI0v5SoxP">
    <mxGraphModel>
      <root>
        <mxCell id="0" />
        <mxCell id="1" parent="0" />
      </root>
    </mxGraphModel>
  </diagram>
</mxfile>
